<svg viewBox="0 0 65 12" fill="none" xmlns="http://www.w3.org/2000/svg"><path d="M6 2.4C8.20913 2.4 10 1.86275 10 1.2C10 0.537258 8.20913 0 6 0C3.79087 0 2 0.537258 2 1.2C2 1.86275 3.79087 2.4 6 2.4Z" fill="#FF7070"/><path d="M9.38661 6.96937C9.62728 6.86764 9.83999 6.74716 10 6.60441V10.8003C10 11.463 8.20913 12.0003 6 12.0003C3.79087 12.0003 2 11.463 2 10.8003V6.60441C2.16001 6.74716 2.37272 6.86764 2.61339 6.96937C3.11454 7.18122 3.80155 7.33854 4.58276 7.42487L4.90714 7.46071L4.92466 7.14287C4.95514 6.58986 5.42503 6.15039 6 6.15039C6.57497 6.15039 7.04486 6.58986 7.07534 7.14287L7.09286 7.46071L7.41724 7.42487C8.19845 7.33854 8.88546 7.18122 9.38661 6.96937Z" fill="#9266F1"/><path d="M10 1.5C10 2.16275 8.20913 2.7 6 2.7C3.79087 2.7 2 2.16275 2 1.5V6.0001C2 6.48184 2.94623 6.89727 4.31153 7.08826C4.41132 7.10222 4.51335 7.11498 4.61741 7.12648C4.62039 7.07242 4.62663 7.0192 4.63595 6.96701C4.74921 6.33251 5.31682 5.8501 6 5.8501C6.68318 5.8501 7.25079 6.33251 7.36405 6.96701C7.37337 7.0192 7.37961 7.07242 7.38259 7.12648C7.48665 7.11498 7.58868 7.10222 7.68847 7.08826C9.05377 6.89727 10 6.48184 10 6.0001V1.5Z" fill="#FF7070"/><path d="M14.9937 8.8374C14.3312 8.20361 14 7.22428 14 5.89941C14 4.57096 14.3312 3.58984 14.9937 2.95605C15.6597 2.31868 16.6569 2 17.9854 2H19.1831C19.9959 2 20.7139 2.21126 21.3369 2.63379C21.9635 3.05632 22.2769 3.6346 22.2769 4.36865C22.2769 4.57992 22.2142 4.7321 22.0889 4.8252C21.9635 4.91471 21.8418 4.95947 21.7236 4.95947H21.0845C20.755 4.95947 20.499 4.76253 20.3164 4.36865C20.0514 3.8029 19.611 3.52002 18.9951 3.52002H18.0391C17.2549 3.52002 16.7231 3.68831 16.4438 4.0249C16.1646 4.36149 16.0249 4.98454 16.0249 5.89404C16.0249 6.80355 16.1646 7.42839 16.4438 7.76855C16.7231 8.10514 17.2549 8.27344 18.0391 8.27344H19.1079C19.7238 8.27344 20.1624 7.99056 20.4238 7.4248C20.6064 7.02734 20.8643 6.82861 21.1973 6.82861H21.8364C22.0047 6.82861 22.1372 6.89128 22.2339 7.0166C22.3341 7.14193 22.3843 7.27799 22.3843 7.4248C22.3843 8.15885 22.0728 8.73714 21.4497 9.15967C20.8267 9.57861 20.1087 9.78809 19.2959 9.78809H17.9854C16.6569 9.78809 15.6597 9.47119 14.9937 8.8374Z" fill="#3A2960"/><path d="M23.8291 9.0791C23.2705 8.56348 22.9912 7.80436 22.9912 6.80176C22.9912 5.79557 23.2705 5.03646 23.8291 4.52441C24.3877 4.00879 25.1898 3.75098 26.2354 3.75098C27.2845 3.75098 28.0884 4.00879 28.647 4.52441C29.2056 5.03646 29.4849 5.79557 29.4849 6.80176C29.4849 7.80436 29.2056 8.56348 28.647 9.0791C28.0884 9.59473 27.2845 9.85254 26.2354 9.85254C25.1898 9.85254 24.3877 9.59473 23.8291 9.0791ZM25.188 5.40527C24.966 5.69531 24.855 6.15902 24.855 6.79639C24.855 7.43376 24.966 7.89925 25.188 8.19287C25.41 8.48649 25.7591 8.6333 26.2354 8.6333C26.7152 8.6333 27.0661 8.48649 27.2881 8.19287C27.5137 7.89925 27.6265 7.43376 27.6265 6.79639C27.6265 6.15902 27.5137 5.69531 27.2881 5.40527C27.0661 5.11523 26.7152 4.97021 26.2354 4.97021C25.7591 4.97021 25.41 5.11523 25.188 5.40527Z" fill="#3A2960"/><path d="M30.4785 11.2275V4.19141C30.4785 4.09473 30.509 4.01595 30.5698 3.95508C30.6343 3.89062 30.7131 3.8584 30.8062 3.8584H31.8428C31.9359 3.8584 32.0129 3.89062 32.0737 3.95508C32.1382 4.01595 32.1704 4.09473 32.1704 4.19141V4.35254C32.7362 3.9515 33.3932 3.75098 34.1416 3.75098C34.89 3.75098 35.5148 4.01595 36.0161 4.5459C36.5174 5.07227 36.7681 5.8278 36.7681 6.8125C36.7681 7.79362 36.5085 8.54557 35.9893 9.06836C35.4701 9.59115 34.77 9.85254 33.8892 9.85254C33.4344 9.85254 32.917 9.76123 32.3369 9.57861V11.2275C32.3369 11.3242 32.3047 11.403 32.2402 11.4639C32.1794 11.5283 32.1024 11.5605 32.0093 11.5605H30.8062C30.7131 11.5605 30.6343 11.5283 30.5698 11.4639C30.509 11.403 30.4785 11.3242 30.4785 11.2275ZM32.3369 8.33789C32.7988 8.4847 33.1873 8.55811 33.5024 8.55811C33.993 8.55811 34.3403 8.41846 34.5444 8.13916C34.7521 7.85986 34.856 7.41406 34.856 6.80176C34.856 6.18945 34.7575 5.74544 34.5605 5.46973C34.3672 5.19043 34.0754 5.05078 33.6851 5.05078C33.2983 5.05078 32.849 5.21191 32.3369 5.53418V8.33789Z" fill="#3A2960"/><path d="M38.7983 10.3037L39.502 10.395C40.0068 10.395 40.3595 10.0244 40.5601 9.2832C39.9513 9.2832 39.4429 9.10059 39.0347 8.73535C38.6265 8.36654 38.2756 7.71305 37.9819 6.7749L37.1816 4.18066C37.1709 4.15202 37.1655 4.11979 37.1655 4.08398C37.1655 4.0446 37.187 3.99805 37.23 3.94434C37.2765 3.89062 37.3446 3.86198 37.4341 3.8584H38.5566C38.6605 3.8584 38.759 3.89421 38.8521 3.96582C38.9487 4.03385 39.0114 4.11979 39.04 4.22363L39.7437 6.50098C39.9191 7.05957 40.0964 7.44629 40.2754 7.66113C40.458 7.87598 40.6729 7.9834 40.9199 7.9834L41.9888 4.22363C42.0174 4.11979 42.0729 4.03385 42.1553 3.96582C42.2412 3.89421 42.3361 3.8584 42.4399 3.8584H43.5732C43.6628 3.8584 43.729 3.88704 43.772 3.94434C43.8149 4.00163 43.8364 4.04997 43.8364 4.08936C43.8364 4.12516 43.8328 4.1556 43.8257 4.18066L42.4185 9.19727C42.1678 10.0853 41.8563 10.7191 41.4839 11.0986C41.1151 11.4782 40.6388 11.668 40.0552 11.668C39.4715 11.668 39.0579 11.6465 38.8145 11.6035C38.5745 11.5605 38.4242 11.5068 38.3633 11.4424C38.3024 11.3815 38.272 11.3099 38.272 11.2275V10.6367C38.272 10.54 38.3024 10.4595 38.3633 10.395C38.4242 10.3341 38.5029 10.3037 38.5996 10.3037H38.7983Z" fill="#3A2960"/><path d="M47.3975 9.85254C46.3949 9.85254 45.6143 9.59473 45.0557 9.0791C44.4971 8.56348 44.2178 7.80615 44.2178 6.80713C44.2178 5.80452 44.4953 5.04541 45.0503 4.52979C45.6053 4.01058 46.377 3.75098 47.3652 3.75098C48.3571 3.75098 49.118 3.90853 49.6479 4.22363C50.1815 4.53874 50.4482 5.00423 50.4482 5.62012C50.4482 5.7168 50.416 5.79557 50.3516 5.85645C50.2907 5.91732 50.2119 5.94775 50.1152 5.94775H49.3149C49.0715 5.94775 48.8656 5.81706 48.6973 5.55566C48.486 5.21908 48.1118 5.05078 47.5747 5.05078C47.0412 5.05078 46.667 5.18864 46.4521 5.46436C46.2409 5.73649 46.1353 6.18229 46.1353 6.80176C46.1353 7.42122 46.2445 7.86881 46.4629 8.14453C46.6849 8.42025 47.068 8.55811 47.6123 8.55811C48.1602 8.55811 48.5397 8.38981 48.751 8.05322C48.9193 7.78825 49.1252 7.65576 49.3687 7.65576H50.1689C50.2656 7.65576 50.3444 7.68799 50.4053 7.75244C50.4697 7.81331 50.502 7.8903 50.502 7.9834C50.502 8.59928 50.2352 9.06478 49.7017 9.37988C49.1717 9.69499 48.4036 9.85254 47.3975 9.85254Z" fill="#3A2960"/><path d="M51.7588 9.3584C51.2861 9.02897 51.0498 8.56348 51.0498 7.96191C51.0498 7.36035 51.2861 6.89844 51.7588 6.57617C52.235 6.25391 52.8473 6.09277 53.5957 6.09277H55.3735C55.3735 5.67383 55.2858 5.382 55.1104 5.21729C54.9349 5.05257 54.627 4.97021 54.1865 4.97021C53.7497 4.97021 53.4417 5.07943 53.2627 5.29785C53.0872 5.5127 52.8706 5.62012 52.6128 5.62012H51.8125C51.7158 5.62012 51.6353 5.58968 51.5708 5.52881C51.5099 5.46436 51.4795 5.38558 51.4795 5.29248C51.4795 4.26481 52.4552 3.75098 54.4067 3.75098C55.259 3.75098 55.9429 3.94255 56.4585 4.32568C56.9741 4.70524 57.2319 5.29427 57.2319 6.09277V9.41748C57.2319 9.51416 57.2015 9.59294 57.1406 9.65381C57.0798 9.71468 57.001 9.74512 56.9043 9.74512H55.8677C55.771 9.74512 55.6922 9.71468 55.6313 9.65381C55.5705 9.58936 55.54 9.51058 55.54 9.41748V9.25098C54.9743 9.6556 54.3208 9.85612 53.5796 9.85254C52.842 9.85254 52.235 9.68783 51.7588 9.3584ZM53.7246 7.31201C53.474 7.31201 53.2752 7.37288 53.1284 7.49463C52.9852 7.61637 52.9136 7.77393 52.9136 7.96729C52.9136 8.16064 52.9888 8.31999 53.1392 8.44531C53.2896 8.57064 53.5026 8.6333 53.7783 8.6333C54.3298 8.6333 54.8615 8.47217 55.3735 8.1499V7.31201H53.7246Z" fill="#3A2960"/><path d="M58.5586 9.41748V4.19141C58.5586 4.09473 58.589 4.01595 58.6499 3.95508C58.7144 3.89062 58.7931 3.8584 58.8862 3.8584H60.0894C60.1825 3.8584 60.2594 3.89062 60.3203 3.95508C60.3848 4.01595 60.417 4.09473 60.417 4.19141V4.52979C61.0329 4.01058 61.6882 3.75098 62.3828 3.75098C63.0811 3.75098 63.6486 3.96403 64.0854 4.39014C64.5223 4.81266 64.7407 5.46077 64.7407 6.33447V9.41748C64.7407 9.51058 64.7085 9.58936 64.644 9.65381C64.5832 9.71468 64.5044 9.74512 64.4077 9.74512H63.21C63.1169 9.74512 63.0381 9.71468 62.9736 9.65381C62.9128 9.58936 62.8823 9.51058 62.8823 9.41748V6.33447C62.8823 5.47868 62.5404 5.05078 61.8564 5.05078C61.4089 5.05078 60.929 5.3068 60.417 5.81885V9.41748C60.417 9.51058 60.3848 9.58936 60.3203 9.65381C60.2594 9.71468 60.1825 9.74512 60.0894 9.74512H58.8862C58.7931 9.74512 58.7144 9.71468 58.6499 9.65381C58.589 9.58936 58.5586 9.51058 58.5586 9.41748Z" fill="#3A2960"/></svg>